<mxfile>
    <diagram id="f941puHJPdR-TauCdkVC" name="Page-1">
        <mxGraphModel dx="851" dy="478" grid="1" gridSize="10" guides="1" tooltips="1" connect="1" arrows="1" fold="1" page="1" pageScale="1" pageWidth="827" pageHeight="1169" math="0" shadow="0">
            <root>
                <mxCell id="0"/>
                <mxCell id="1" parent="0"/>
                <mxCell id="2" value="" style="points=[];aspect=fixed;html=1;align=center;shadow=0;dashed=0;image;image=img/lib/allied_telesis/computer_and_terminals/Smartphone.svg;" vertex="1" parent="1">
                    <mxGeometry x="70" y="230" width="19.8" height="43.199999999999996" as="geometry"/>
                </mxCell>
                <mxCell id="3" value="" style="aspect=fixed;perimeter=ellipsePerimeter;html=1;align=center;shadow=0;dashed=0;spacingTop=3;image;image=img/lib/active_directory/home_page.svg;" vertex="1" parent="1">
                    <mxGeometry x="54.9" y="130" width="50" height="45" as="geometry"/>
                </mxCell>
                <mxCell id="4" value="WEB" style="text;html=1;align=center;verticalAlign=middle;resizable=0;points=[];autosize=1;" vertex="1" parent="1">
                    <mxGeometry x="60" y="190" width="40" height="20" as="geometry"/>
                </mxCell>
                <mxCell id="5" value="MÃ“VIL" style="text;html=1;align=center;verticalAlign=middle;resizable=0;points=[];autosize=1;" vertex="1" parent="1">
                    <mxGeometry x="55" y="290" width="50" height="20" as="geometry"/>
                </mxCell>
                <mxCell id="6" value="" style="endArrow=none;dashed=1;html=1;" edge="1" parent="1">
                    <mxGeometry width="50" height="50" relative="1" as="geometry">
                        <mxPoint x="200" y="480" as="sourcePoint"/>
                        <mxPoint x="200" y="40" as="targetPoint"/>
                    </mxGeometry>
                </mxCell>
                <mxCell id="7" value="" style="endArrow=none;dashed=1;html=1;" edge="1" parent="1">
                    <mxGeometry width="50" height="50" relative="1" as="geometry">
                        <mxPoint x="200" y="40" as="sourcePoint"/>
                        <mxPoint x="640" y="40" as="targetPoint"/>
                    </mxGeometry>
                </mxCell>
                <mxCell id="8" value="" style="endArrow=none;dashed=1;html=1;" edge="1" parent="1">
                    <mxGeometry width="50" height="50" relative="1" as="geometry">
                        <mxPoint x="640" y="480" as="sourcePoint"/>
                        <mxPoint x="640" y="40" as="targetPoint"/>
                    </mxGeometry>
                </mxCell>
                <mxCell id="9" value="" style="endArrow=none;dashed=1;html=1;" edge="1" parent="1">
                    <mxGeometry width="50" height="50" relative="1" as="geometry">
                        <mxPoint x="200" y="480" as="sourcePoint"/>
                        <mxPoint x="640" y="480" as="targetPoint"/>
                    </mxGeometry>
                </mxCell>
                <mxCell id="10" value="" style="rounded=1;whiteSpace=wrap;html=1;" vertex="1" parent="1">
                    <mxGeometry x="240" y="70" width="360" height="90" as="geometry"/>
                </mxCell>
                <mxCell id="11" value="" style="rounded=1;whiteSpace=wrap;html=1;" vertex="1" parent="1">
                    <mxGeometry x="240" y="206.6" width="290" height="90" as="geometry"/>
                </mxCell>
                <mxCell id="12" value="" style="rounded=1;whiteSpace=wrap;html=1;" vertex="1" parent="1">
                    <mxGeometry x="240" y="360" width="270" height="90" as="geometry"/>
                </mxCell>
                <mxCell id="13" style="edgeStyle=orthogonalEdgeStyle;rounded=0;orthogonalLoop=1;jettySize=auto;html=1;exitX=1;exitY=0.5;exitDx=0;exitDy=0;" edge="1" parent="1" source="14" target="34">
                    <mxGeometry relative="1" as="geometry"/>
                </mxCell>
                <mxCell id="14" value="" style="rounded=0;whiteSpace=wrap;html=1;fillColor=#FFCC99;" vertex="1" parent="1">
                    <mxGeometry x="270" y="390" width="90" height="40" as="geometry"/>
                </mxCell>
                <mxCell id="15" value="" style="shape=hexagon;perimeter=hexagonPerimeter2;whiteSpace=wrap;html=1;fixedSize=1;fillColor=#FFCC99;" vertex="1" parent="1">
                    <mxGeometry x="285" y="390" width="60" height="40" as="geometry"/>
                </mxCell>
                <mxCell id="16" style="edgeStyle=orthogonalEdgeStyle;rounded=0;orthogonalLoop=1;jettySize=auto;html=1;exitX=1;exitY=0.5;exitDx=0;exitDy=0;" edge="1" parent="1" source="17" target="33">
                    <mxGeometry relative="1" as="geometry"/>
                </mxCell>
                <mxCell id="17" value="" style="rounded=0;whiteSpace=wrap;html=1;fillColor=#66FFFF;" vertex="1" parent="1">
                    <mxGeometry x="270" y="233.2" width="90" height="40" as="geometry"/>
                </mxCell>
                <mxCell id="18" value="" style="shape=hexagon;perimeter=hexagonPerimeter2;whiteSpace=wrap;html=1;fixedSize=1;fillColor=#66FFFF;" vertex="1" parent="1">
                    <mxGeometry x="285" y="233.2" width="60" height="40" as="geometry"/>
                </mxCell>
                <mxCell id="19" style="edgeStyle=orthogonalEdgeStyle;rounded=0;orthogonalLoop=1;jettySize=auto;html=1;exitX=1;exitY=0.5;exitDx=0;exitDy=0;entryX=0;entryY=0.5;entryDx=0;entryDy=0;" edge="1" parent="1" source="20" target="22">
                    <mxGeometry relative="1" as="geometry"/>
                </mxCell>
                <mxCell id="20" value="" style="rounded=0;whiteSpace=wrap;html=1;fillColor=#99FFCC;" vertex="1" parent="1">
                    <mxGeometry x="270" y="95" width="90" height="40" as="geometry"/>
                </mxCell>
                <mxCell id="21" value="" style="shape=hexagon;perimeter=hexagonPerimeter2;whiteSpace=wrap;html=1;fixedSize=1;fillColor=#99FFCC;" vertex="1" parent="1">
                    <mxGeometry x="285" y="95" width="60" height="40" as="geometry"/>
                </mxCell>
                <mxCell id="22" value="" style="aspect=fixed;perimeter=ellipsePerimeter;html=1;align=center;shadow=0;dashed=0;spacingTop=3;image;image=img/lib/active_directory/databases.svg;" vertex="1" parent="1">
                    <mxGeometry x="460" y="91" width="50" height="49" as="geometry"/>
                </mxCell>
                <mxCell id="23" value="MICROSERVICE" style="text;html=1;align=center;verticalAlign=middle;resizable=0;points=[];autosize=1;" vertex="1" parent="1">
                    <mxGeometry x="240" y="50" width="110" height="20" as="geometry"/>
                </mxCell>
                <mxCell id="24" value="API GATEWAY WEB" style="text;html=1;align=center;verticalAlign=middle;resizable=0;points=[];autosize=1;" vertex="1" parent="1">
                    <mxGeometry x="240" y="186.6" width="130" height="20" as="geometry"/>
                </mxCell>
                <mxCell id="25" value="API GATEWAY MOVIL" style="text;html=1;align=center;verticalAlign=middle;resizable=0;points=[];autosize=1;" vertex="1" parent="1">
                    <mxGeometry x="235" y="340" width="140" height="20" as="geometry"/>
                </mxCell>
                <mxCell id="26" value="WEB API" style="text;html=1;align=center;verticalAlign=middle;resizable=0;points=[];autosize=1;" vertex="1" parent="1">
                    <mxGeometry x="275" y="370" width="60" height="20" as="geometry"/>
                </mxCell>
                <mxCell id="27" value="WEB API" style="text;html=1;align=center;verticalAlign=middle;resizable=0;points=[];autosize=1;" vertex="1" parent="1">
                    <mxGeometry x="285" y="213.2" width="60" height="20" as="geometry"/>
                </mxCell>
                <mxCell id="28" value="WEB API" style="text;html=1;align=center;verticalAlign=middle;resizable=0;points=[];autosize=1;" vertex="1" parent="1">
                    <mxGeometry x="285" y="75" width="60" height="20" as="geometry"/>
                </mxCell>
                <mxCell id="29" value="CONTEINER" style="text;html=1;align=center;verticalAlign=middle;resizable=0;points=[];autosize=1;" vertex="1" parent="1">
                    <mxGeometry x="270" y="135" width="90" height="20" as="geometry"/>
                </mxCell>
                <mxCell id="30" value="CONTEINER" style="text;html=1;align=center;verticalAlign=middle;resizable=0;points=[];autosize=1;" vertex="1" parent="1">
                    <mxGeometry x="270" y="276.6" width="90" height="20" as="geometry"/>
                </mxCell>
                <mxCell id="31" value="CONTEINER" style="text;html=1;align=center;verticalAlign=middle;resizable=0;points=[];autosize=1;" vertex="1" parent="1">
                    <mxGeometry x="270" y="430" width="90" height="20" as="geometry"/>
                </mxCell>
                <mxCell id="32" value="MY SQL" style="text;html=1;align=center;verticalAlign=middle;resizable=0;points=[];autosize=1;" vertex="1" parent="1">
                    <mxGeometry x="520" y="105.5" width="60" height="20" as="geometry"/>
                </mxCell>
                <mxCell id="33" value="ASP.NET" style="text;html=1;align=center;verticalAlign=middle;resizable=0;points=[];autosize=1;" vertex="1" parent="1">
                    <mxGeometry x="420" y="243.2" width="70" height="20" as="geometry"/>
                </mxCell>
                <mxCell id="34" value="ASP.NET" style="text;html=1;align=center;verticalAlign=middle;resizable=0;points=[];autosize=1;" vertex="1" parent="1">
                    <mxGeometry x="414" y="400" width="70" height="20" as="geometry"/>
                </mxCell>
                <mxCell id="35" value="" style="endArrow=classic;html=1;entryX=0;entryY=0.25;entryDx=0;entryDy=0;" edge="1" parent="1" source="2" target="12">
                    <mxGeometry width="50" height="50" relative="1" as="geometry">
                        <mxPoint x="110" y="340" as="sourcePoint"/>
                        <mxPoint x="160" y="290" as="targetPoint"/>
                    </mxGeometry>
                </mxCell>
                <mxCell id="36" value="" style="endArrow=classic;html=1;entryX=0;entryY=0.5;entryDx=0;entryDy=0;" edge="1" parent="1" source="2" target="10">
                    <mxGeometry width="50" height="50" relative="1" as="geometry">
                        <mxPoint x="99.79999999999995" y="269.6943785134291" as="sourcePoint"/>
                        <mxPoint x="250" y="392.5" as="targetPoint"/>
                    </mxGeometry>
                </mxCell>
                <mxCell id="37" value="" style="endArrow=classic;html=1;entryX=0;entryY=0.5;entryDx=0;entryDy=0;exitX=1;exitY=0.75;exitDx=0;exitDy=0;" edge="1" parent="1" source="3" target="11">
                    <mxGeometry width="50" height="50" relative="1" as="geometry">
                        <mxPoint x="109.79999999999995" y="279.6943785134291" as="sourcePoint"/>
                        <mxPoint x="260" y="402.5" as="targetPoint"/>
                    </mxGeometry>
                </mxCell>
                <mxCell id="38" value="" style="endArrow=classic;html=1;entryX=0;entryY=0.25;entryDx=0;entryDy=0;exitX=1;exitY=0.5;exitDx=0;exitDy=0;" edge="1" parent="1" source="3" target="10">
                    <mxGeometry width="50" height="50" relative="1" as="geometry">
                        <mxPoint x="119.79999999999995" y="289.6943785134291" as="sourcePoint"/>
                        <mxPoint x="270" y="412.5" as="targetPoint"/>
                    </mxGeometry>
                </mxCell>
            </root>
        </mxGraphModel>
    </diagram>
</mxfile>